<?xml version="1.0" encoding="UTF-8" standalone="no"?>
<svg width="145px" height="35px" viewBox="0 0 145 35" version="1.1" xmlns="http://www.w3.org/2000/svg" xmlns:xlink="http://www.w3.org/1999/xlink" xmlns:sketch="http://www.bohemiancoding.com/sketch/ns">
    <!-- Generator: Sketch 3.0 (7573) - http://www.bohemiancoding.com/sketch -->
    <title>sbl</title>
    <description>Created with Sketch.</description>
    <defs></defs>
    <g id="Page-1" stroke="none" stroke-width="1" fill="none" fill-rule="evenodd" sketch:type="MSPage">
        <path d="M124.442,18.371 L124.189,14.81 L124.824,9.468 C124.824,9.468 125.969,7.814 126.86,8.069 C127.751,8.322 129.913,9.34 130.167,9.976 C130.421,10.612 130.803,17.736 130.803,17.736 L132.711,18.244 L133.014,20.818 L126.987,21.042 L123.297,20.789 L122.535,20.026 L122.535,18.881 L124.442,18.371" id="Fill-1" fill="#DB2C6A" sketch:type="MSShapeGroup"></path>
        <g id="Group" sketch:type="MSLayerGroup" fill="#000000">
            <path d="M0.297,23.901 C1.605,23.419 1.661,25.427 2.182,25.75 C2.855,26.163 2.572,26.825 3.319,26.946 C3.979,27.055 4.589,26.649 5.175,26.462 C6.239,26.122 6.504,24.595 6.5,23.831 C6.485,21.912 5.558,20.604 4.051,19.44 C1.7,17.627 0.952,14.333 2.931,12.125 C5.565,9.173 8.564,13.54 7.964,16.056 C7.655,17.354 6.621,17.054 6.514,15.933 C6.406,14.777 6.557,14.128 5.97,13.057 C5.287,11.8 3.227,13.578 3.261,14.605 C3.312,16.135 3.787,17.094 5.03,18.061 C7.147,19.709 9.128,24.108 7.032,26.534 C5.983,27.75 4.154,28.964 2.438,28.236 C1.187,27.702 -0.744,24.3 0.297,23.901" id="Fill-24" sketch:type="MSShapeGroup"></path>
            <path d="M12.227,14.91 C12.026,18.418 11.079,23.083 12.074,26.509 C12.705,28.675 15.31,26.487 16.011,25.562 C16.817,24.499 16.899,22.855 17.004,21.58 C17.236,18.775 16.945,16.798 15.756,14.345 C14.478,11.684 12.51,12.518 12.247,14.718 C12.281,14.453 12.274,14.517 12.227,14.91 C12.207,15.258 12.315,14.167 12.227,14.91 L12.227,14.91 Z M18.304,17.848 C18.436,20.426 18.578,24.309 16.89,26.434 C15.688,27.948 14.056,29.259 12.01,28.481 C10.232,27.805 10.671,24.596 10.6,23.093 C10.442,19.745 9.753,13.21 13.318,11.463 C16.434,9.937 18.181,15.501 18.304,17.848 C18.349,18.726 18.247,16.764 18.304,17.848 L18.304,17.848 Z" id="Fill-3" sketch:type="MSShapeGroup"></path>
            <path d="M26.534,12.955 C26.91,13.629 27.233,14.991 26.439,15.118 C25.802,15.278 25.706,13.976 25.198,13.305 C24.69,12.633 23.596,12.99 22.864,14.954 C21.873,17.611 22.096,21.971 22.757,24.677 C23.071,25.962 23.93,27.198 25.111,26.084 C25.818,25.417 25.584,24.013 26.792,24.841 C27.699,25.464 26.491,26.459 26.183,27.004 C25.463,28.278 24.764,28.892 23.467,28.372 C21.46,27.57 21.202,24.571 20.952,22.368 C20.731,20.412 20.85,17.713 21.211,15.817 C21.473,14.444 22.119,12.836 22.994,11.831 C24.27,10.365 26.245,12.438 26.534,12.955" id="Fill-4" sketch:type="MSShapeGroup"></path>
            <path d="M30.57,11.329 C31.383,11.799 31.011,19.597 30.925,20.682 C30.846,21.675 31.383,28.754 30.452,28.731 C28.987,28.693 29.707,21.202 29.756,19.83 C29.815,18.118 29.778,16.406 29.706,14.704 C29.661,13.701 29.243,10.557 30.57,11.329 C30.927,11.535 30.305,11.175 30.57,11.329" id="Fill-5" sketch:type="MSShapeGroup"></path>
            <path d="M37.791,20.095 C41.089,19.753 39.49,15.082 37.849,13.487 C36.329,12.012 36.11,19.411 36.066,20.141 C36.656,20.157 37.207,20.155 37.791,20.095 C38.129,20.06 37.216,20.154 37.791,20.095 L37.791,20.095 Z M40.973,25.021 C41.051,25.593 41.31,28.899 39.952,27.939 C38.522,26.927 40.395,23.147 39.412,21.881 C38.992,21.341 37.065,21.945 36.571,22.134 C35.395,22.587 35.821,24.484 35.828,25.525 C35.837,26.491 36.33,27.62 35.554,28.413 C34.458,29.533 34.669,25.836 34.673,25.583 C34.723,22.216 34.385,18.55 35.056,15.235 C35.353,13.768 36.362,9.543 38.418,11.619 C42.119,15.359 40.364,20.396 40.973,25.021 C41.054,25.618 40.832,23.949 40.973,25.021 L40.973,25.021 Z" id="Fill-6" sketch:type="MSShapeGroup"></path>
            <path d="M51.808,27.278 C52.312,27.639 51.979,28.605 51.321,28.706 C49.938,28.923 48.047,28.851 46.664,28.65 C44.405,28.32 45.039,27.91 44.869,25.981 C44.773,24.885 44.813,23.857 44.537,22.763 C44.097,21.02 44.605,19.342 44.249,17.629 C44.083,16.834 42.968,10.967 44.231,10.952 C45.955,10.912 45.569,16.116 45.746,17.352 C46.028,19.31 45.476,22.18 46.371,23.986 C46.726,24.675 46.566,26.255 46.663,27.016 C47.757,27.536 48.642,27.344 49.796,27.252 C50.768,27.175 51.278,26.899 51.808,27.278" id="Fill-7" sketch:type="MSShapeGroup"></path>
            <path d="M63.827,26.275 C63.941,26.798 66.602,26.806 66.946,26.711 C68.245,26.355 69.082,25.043 69.463,23.823 C70.826,19.456 65.742,20.239 63.415,19.779 C63.113,21.829 63.394,24.291 63.827,26.275 C63.922,26.707 63.741,25.881 63.827,26.275 L63.827,26.275 Z M66.484,17.345 C68.108,15.45 67.407,12.467 64.529,12.61 C62.185,12.728 63.114,16.892 63.381,18.476 C64.327,18.382 65.832,18.105 66.484,17.345 C67.298,16.396 65.885,18.042 66.484,17.345 L66.484,17.345 Z M67.673,12.382 C69.751,14.064 68.535,16.481 67.214,18.197 C72.286,18.887 71.678,24.74 68.746,27.534 C67.035,29.164 64.965,28.304 62.92,28.052 C61.882,27.925 62.102,25.792 62.08,25.089 C61.958,21.285 62.047,17.504 61.663,13.725 C61.509,12.211 61.657,11.386 63.188,11.345 C64.676,11.307 66.461,11.401 67.673,12.382 C69.811,14.113 65.956,10.991 67.673,12.382 L67.673,12.382 Z" id="Fill-8" sketch:type="MSShapeGroup"></path>
            <path d="M78.906,26.316 C80.266,23.933 81.114,19.545 80.246,16.949 C79.877,15.845 76.923,10.612 75.378,13.171 C73.925,15.577 74.534,18.878 74.933,21.414 C75.116,22.579 74.922,25.424 75.933,26.193 C76.718,26.785 78.263,27.438 78.906,26.316 C79.744,24.847 78.141,27.654 78.906,26.316 L78.906,26.316 Z M81.889,16.902 C82.443,19.383 82.133,27.348 78.605,28.337 C73.538,29.759 73.523,23.593 73.274,21.161 C73.005,18.529 71.823,13.33 75.103,11.525 C78.132,9.856 81.424,14.831 81.889,16.902 C82.28,18.65 81.629,15.736 81.889,16.902 L81.889,16.902 Z" id="Fill-9" sketch:type="MSShapeGroup"></path>
            <path d="M90.017,25.637 C92.234,24.676 91.446,19.769 91.235,17.994 C90.984,15.853 90.925,12.737 87.584,12.881 C85.27,12.976 85.788,13.668 85.994,15.385 C86.216,17.252 86.268,19.13 86.342,21.004 C86.419,22.908 86.521,24.817 86.863,26.699 C87.523,27.106 89.432,25.889 90.017,25.637 C91.561,24.967 89.193,25.993 90.017,25.637 L90.017,25.637 Z M93.096,19.351 C93.202,21.213 93.109,23.096 92.656,24.92 C90.739,28.348 85.524,28.124 85.524,28.124 C85.524,28.124 85.032,22.653 84.76,20.333 C84.5,18.104 84.513,14.439 84.057,12.227 C85.286,11.251 87.257,11.429 88.879,11.334 C91.641,11.748 92.892,15.751 93.096,19.351 L93.096,19.351 Z" id="Fill-10" sketch:type="MSShapeGroup"></path>
            <path d="M94.32,11.678 C97.38,8.356 98.487,22.153 101.301,14.462 C101.675,13.44 102.236,11.152 103.564,10.693 C105.447,10.043 102.641,15.227 102.319,15.646 C100.13,18.498 100.165,21.449 100.215,24.785 C100.229,25.688 100.653,27.668 100.215,28.093 C98.885,29.383 98.816,27.144 98.795,26.571 C98.694,24.016 99.774,20.628 98.291,18.268 C97.836,17.544 94.724,11.698 94.32,11.678" id="Fill-11" sketch:type="MSShapeGroup"></path>
            <path d="M116.243,12.697 C116.517,15.83 116.33,18.912 116.376,22.023 C116.389,22.955 116.314,25.981 117.107,26.668 C117.853,27.316 120.697,26.171 121.588,25.924 C123.091,27.629 119.93,28.042 118.851,28.191 C115.211,28.691 115.245,27.582 115.005,24.541 C114.732,21.098 114.776,17.858 114.868,14.412 C114.889,13.596 114.549,12.697 114.84,11.899 C115.358,10.485 116.243,11.709 116.243,12.697" id="Fill-13" sketch:type="MSShapeGroup"></path>
            <path d="M129.539,10.66 C129.044,9.682 128.384,8.851 127.034,8.706 C126.501,8.718 126.247,8.933 125.944,9.214 C125.524,9.604 125.269,10.128 125.118,10.669 C124.807,11.781 124.849,12.974 124.874,14.114 C124.889,14.838 124.858,15.876 125.082,16.749 C125.271,17.49 124.865,17.326 124.929,17.547 C125.791,17.785 126.694,17.86 127.586,17.847 C128.262,17.836 128.937,17.774 129.604,17.664 C130.55,17.51 130.281,17.176 130.054,16.443 C129.858,15.809 130.183,14.551 130.15,13.756 C130.115,12.935 130.026,11.626 129.539,10.66 L129.539,10.66 Z M129.218,20.254 C129.968,20.214 131.167,20.393 131.85,20.121 C132.208,19.98 132.236,18.844 131.85,18.85 C131.406,18.824 130.993,18.935 130.315,18.936 C129.5,18.943 129.126,18.918 128.298,18.981 C127.374,19.049 126.924,19.197 125.999,19.133 C121.954,18.85 122.771,20.123 123.122,20.254 C123.473,20.384 127.756,20.328 129.218,20.254 L129.218,20.254 Z M121.61,18.583 C121.636,17.221 122.93,17.748 123.834,17.462 C123.342,16.763 123.583,14.725 123.636,13.795 C123.719,12.374 123.657,10.87 124.052,9.483 C124.223,8.888 125.467,7.8 126.054,7.607 C127.753,7.045 128.843,7.867 129.919,9.055 C131.043,10.296 131.184,11.34 131.321,12.892 C131.357,13.291 131.369,13.717 131.16,14.345 C131.191,15.515 131.459,16.18 131.524,17.089 C131.616,18.346 133.654,16.786 133.687,18.473 C133.605,19.2 133.272,20.189 133.014,20.818 C132.864,21.189 132.553,21.382 132.154,21.382 C131.471,21.382 131.592,21.977 131.553,22.625 C131.473,23.932 131.822,25.127 131.878,26.402 C131.901,26.956 131.792,27.625 132.043,28.144 C132.289,28.653 132.13,29.361 132.227,30.015 C132.311,30.573 132.247,31.29 132.232,31.875 C132.211,32.666 132.516,33.224 132.516,33.881 C132.516,35.335 131.062,35.427 131.012,33.832 C130.971,32.487 130.942,31.465 131.012,30.154 C131.154,27.412 130.276,24.34 130.319,21.419 C129.322,21.427 128.319,21.605 127.325,21.508 C126.935,21.475 126.043,21.605 125.771,21.588 C125.798,22.05 125.824,22.682 125.936,23.091 C126.255,24.253 126.24,25.49 126.287,26.685 C126.325,27.589 126.55,28.52 126.53,29.423 C126.503,30.654 125.198,30.148 125.153,29.107 C125.039,26.561 124.771,24.028 124.423,21.505 C122.991,21.35 122.201,21.218 121.851,20.911 C121.63,20.079 121.593,19.297 121.61,18.583 L121.61,18.583 Z" id="Fill-23" sketch:type="MSShapeGroup"></path>
            <path d="M121.146,6.886 C120.835,7.448 120.329,8.217 119.625,7.777 C119.113,7.458 119.632,7.157 119,6.92 C118.539,6.747 118.034,6.262 118.284,5.96 C119.201,4.849 120.359,6.086 121.146,6.886" id="Fill-17" sketch:type="MSShapeGroup"></path>
            <path d="M123.574,4.675 C123.264,4.298 122.93,3.943 122.632,3.554 C121.978,2.701 121.557,1.579 123.1,1.723 C123.479,1.759 123.896,2.53 124.483,3.294 C124.842,3.603 124.202,5.437 123.574,4.675" id="Fill-19" sketch:type="MSShapeGroup"></path>
            <path d="M129.318,3.167 C128.894,3.716 128.333,4.048 127.886,3.477 C127.833,2.825 127.624,-1.069 129.189,0.903 C129.281,1.019 129.51,2.474 129.318,3.167" id="Fill-21" sketch:type="MSShapeGroup"></path>
            <path d="M134.222,1.805 C135.529,2.665 133.776,5.629 133.911,5.398 C134.043,5.166 133.736,5.822 133.405,5.734 C133.079,5.632 132.456,5.269 132.393,4.976 C132.333,4.684 133.912,1.603 134.222,1.805" id="Fill-22" sketch:type="MSShapeGroup"></path>
            <path d="M141.803,14.828 C141.735,12.514 139.417,12.775 137.651,12.869 C137.164,14.57 137.946,16.785 138.135,18.592 C140.084,18.686 142.132,17.353 141.803,14.828 L141.803,14.828 Z M139.926,19.628 C137.882,20.039 138.026,22.96 138.191,24.36 C138.278,25.1 138.577,26.903 138.577,26.903 C138.577,26.903 139.535,26.944 140.436,26.861 C142.209,26.694 143.265,25.061 143.247,23.321 C143.224,21.377 141.902,19.23 139.926,19.628 L139.926,19.628 Z M138.274,11.249 C140.009,11.131 141.697,11.253 142.603,12.883 C143.718,14.882 143.237,16.305 142.189,18.098 C141.808,18.75 143.051,19.159 143.542,19.822 C144.228,20.749 144.462,21.903 144.578,23.007 C144.794,25.144 143.84,26.579 142.1,27.751 C141.128,28.405 137.1,28.536 137.02,27.361 C136.871,25.172 136.979,22.833 136.902,20.639 C136.831,18.61 136.513,16.632 136.243,14.629 C135.976,12.66 135.455,11.441 138.274,11.249 C140.093,11.126 136.646,11.36 138.274,11.249 L138.274,11.249 Z" id="Fill-15" sketch:type="MSShapeGroup"></path>
        </g>
    </g>
</svg>